<?xml version="1.0" standalone="no"?>
<!DOCTYPE svg PUBLIC "-//W3C//DTD SVG 20010904//EN"
 "http://www.w3.org/TR/2001/REC-SVG-20010904/DTD/svg10.dtd">
<svg version="1.0" xmlns="http://www.w3.org/2000/svg"
 width="587.000000pt" height="587.000000pt" viewBox="0 0 587.000000 587.000000"
 preserveAspectRatio="xMidYMid meet">
<rect x="0" y="0" width="587.000000" height="587.000000" fill="#080808"/>

<metadata>
Created by potrace 1.16, written by Peter Selinger 2001-2019
</metadata>
<g transform="translate(0.000000,587.000000) scale(0.100000,-0.100000)"
fill="#39ff88" stroke="none">
<path d="M0 2935 l0 -2935 2935 0 2935 0 0 2935 0 2935 -2935 0 -2935 0 0
-2935z m2979 2684 c54 -79 141 -151 326 -269 189 -121 275 -192 330 -276 49
-73 85 -175 85 -242 l0 -52 52 41 c70 55 138 88 217 105 123 26 205 17 486
-52 162 -40 256 -50 340 -36 33 5 62 8 65 7 3 -2 3 -32 0 -67 -9 -90 5 -211
45 -383 52 -221 62 -321 42 -419 -19 -93 -52 -165 -102 -224 l-37 -42 29 0
c16 0 54 -7 84 -16 164 -49 255 -136 415 -399 96 -158 178 -262 244 -312 27
-20 50 -40 50 -43 0 -3 -22 -23 -49 -44 -69 -52 -144 -148 -240 -304 -112
-183 -122 -198 -196 -273 -87 -88 -212 -148 -307 -149 l-28 0 36 -47 c120
-157 133 -322 53 -653 -39 -161 -43 -186 -43 -311 l-1 -136 -35 8 c-91 22
-185 9 -430 -56 -91 -25 -203 -49 -248 -55 -164 -19 -309 22 -414 118 l-27 24
-6 -38 c-16 -104 -40 -170 -88 -241 -59 -89 -137 -156 -302 -260 -170 -108
-280 -196 -332 -267 -25 -33 -48 -62 -51 -63 -4 -1 -22 20 -41 48 -52 76 -128
139 -321 267 -193 127 -273 197 -332 286 -43 67 -78 168 -78 227 l0 40 -53
-40 c-73 -56 -149 -88 -239 -101 -98 -14 -194 -2 -388 49 -80 22 -170 45 -200
52 -62 14 -197 18 -251 6 l-36 -7 5 107 c5 117 -7 195 -59 408 -38 155 -47
294 -25 389 19 81 65 172 107 212 l30 28 -72 12 c-163 28 -297 136 -419 337
-144 240 -222 339 -315 405 l-30 21 25 17 c75 50 178 177 280 344 165 272 276
370 452 403 l67 12 -35 45 c-48 60 -69 103 -89 181 -25 95 -16 258 24 418 49
192 64 303 57 404 l-7 88 28 -8 c15 -4 75 -8 133 -7 89 1 134 8 298 48 228 56
333 66 436 42 95 -22 141 -45 209 -100 l57 -46 0 38 c0 93 48 211 124 304 55
67 122 119 312 239 151 95 272 198 314 268 14 22 27 40 30 40 3 0 20 -22 39
-50z M2835 5439 c-33 -28 -132 -96 -220 -152 -186 -117 -295 -217 -338 -308
-26 -57 -55 -184 -44 -195 3 -4 39 5 79 20 144 51 305 82 531 102 l67 6 0 289
c0 159 -3 289 -7 288 -5 0 -35 -23 -68 -50z M2980 5202 l0 -291 53 -5 c28 -3
86 -8 127 -11 107 -9 258 -41 378 -81 57 -19 106 -34 108 -34 2 0 4 18 4 40 0
56 -35 153 -77 217 -50 76 -115 130 -296 244 -87 56 -183 121 -215 147 -31 25
-63 50 -69 55 -10 7 -13 -50 -13 -281z M1650 4853 c-14 -2 -78 -18 -142 -33
-161 -40 -272 -60 -327 -60 l-46 0 209 -209 209 -209 81 70 c128 111 283 216
414 282 28 15 52 31 52 36 0 15 -78 69 -140 98 -48 23 -70 26 -170 28 -63 1
-126 0 -140 -3z M3950 4838 c-60 -21 -170 -90 -170 -106 0 -4 36 -26 80 -50
153 -83 315 -198 425 -303 l40 -39 209 209 208 208 -77 6 c-43 4 -152 25 -244
48 -134 33 -189 42 -286 45 -106 4 -127 2 -185 -18z M2660 4814 c-146 -23
-307 -68 -442 -124 -242 -99 -414 -216 -614 -415 -191 -190 -303 -355 -405
-592 -216 -503 -205 -1062 31 -1552 172 -355 438 -643 775 -839 311 -180 735
-275 1080 -242 348 33 637 135 911 319 546 367 870 1002 840 1646 -12 273 -71
502 -191 751 -258 532 -738 907 -1319 1030 -104 22 -152 26 -346 30 -167 2
-249 -1 -320 -12z m357 -131 c354 -395 615 -799 723 -1121 15 -45 29 -83 31
-84 2 -1 32 14 66 33 54 30 62 38 67 70 8 52 49 89 98 89 22 0 47 -4 56 -9 26
-14 222 106 222 136 0 12 5 33 11 47 11 23 7 32 -44 100 -152 201 -344 358
-587 481 -84 42 -274 107 -368 125 -53 11 -68 19 -92 49 -17 19 -30 38 -30 42
0 9 101 -8 210 -36 363 -93 721 -334 926 -624 30 -43 56 -70 67 -71 34 0 88
-32 102 -61 17 -32 19 -72 5 -99 -7 -14 -1 -36 25 -94 48 -102 99 -260 125
-381 27 -127 38 -418 21 -549 -19 -144 -74 -342 -128 -463 -47 -104 -50 -115
-40 -151 18 -70 -27 -132 -96 -132 -17 0 -36 -17 -72 -68 -106 -144 -303 -327
-458 -425 -80 -52 -226 -124 -327 -162 -104 -40 -266 -82 -276 -72 -5 4 8 24
28 44 29 29 60 44 153 74 319 105 602 301 797 552 70 91 75 101 58 112 -5 3
-10 21 -10 38 0 29 -8 36 -80 80 -44 27 -85 47 -90 45 -6 -2 -38 -37 -73 -78
-34 -40 -141 -143 -237 -228 -314 -276 -491 -444 -637 -602 -152 -164 -195
-197 -241 -186 -17 5 -71 53 -147 134 -176 186 -352 355 -600 573 -240 212
-324 293 -363 351 -13 21 -30 38 -36 38 -6 0 -47 -22 -91 -48 -78 -47 -80 -49
-88 -96 -7 -46 -6 -50 34 -105 206 -275 479 -470 809 -577 100 -32 121 -43
160 -82 l45 -44 -41 6 c-182 27 -462 149 -659 288 -108 76 -290 254 -369 361
-47 63 -62 77 -84 77 -35 0 -68 23 -88 62 -13 25 -14 38 -4 72 10 38 9 46 -28
126 -197 425 -202 914 -16 1366 47 114 53 135 44 160 -23 59 14 115 88 137 31
10 50 25 84 72 202 275 504 493 830 599 115 38 257 69 290 64 21 -3 21 -4 -9
-39 -27 -29 -44 -38 -110 -53 -271 -64 -521 -192 -725 -373 -124 -110 -270
-288 -259 -317 2 -6 7 -26 10 -45 5 -31 17 -41 108 -97 101 -63 102 -63 132
-48 59 29 141 -22 141 -87 0 -24 10 -34 67 -68 l68 -40 36 108 c103 307 312
634 673 1055 59 70 111 126 115 126 5 0 39 -35 78 -77z M2980 4192 l0 -232 31
-28 c21 -19 32 -39 36 -69 5 -39 2 -46 -31 -79 l-36 -36 2 -181 3 -180 205
217 c113 119 206 221 208 226 5 14 -75 139 -196 309 -88 122 -130 177 -214
276 -4 5 -8 -95 -8 -223z M2828 4333 c-146 -178 -295 -399 -387 -574 -62 -118
-127 -297 -133 -364 l-3 -37 264 -159 c276 -166 281 -168 281 -105 0 16 14 69
31 118 l30 88 -3 224 -3 223 -28 24 c-53 47 -52 130 3 169 l30 21 0 225 c0
128 -4 224 -9 224 -5 0 -38 -35 -73 -77z M1537 3699 c-10 -6 -27 -9 -38 -6
-25 7 -37 -12 -89 -142 -167 -423 -155 -875 35 -1298 25 -57 31 -63 57 -63 16
0 38 -5 49 -10 15 -9 33 -3 92 31 39 23 77 46 84 51 8 7 0 32 -28 94 -81 171
-109 377 -109 792 l0 263 23 -6 c87 -26 445 -237 609 -360 203 -151 462 -417
600 -615 16 -24 17 -12 17 250 l1 275 -273 162 c-149 89 -274 159 -277 157 -2
-3 -7 -43 -10 -90 l-5 -84 -80 55 c-104 72 -115 82 -111 97 3 7 7 43 10 79 l6
66 -72 42 c-69 40 -75 42 -110 30 -66 -21 -122 12 -143 87 -9 34 -21 45 -105
96 -102 62 -105 63 -133 47z M4210 3650 c-52 -32 -96 -64 -96 -72 -1 -7 -2
-23 -3 -34 -1 -30 -47 -72 -86 -80 -20 -3 -43 0 -61 9 -26 14 -31 12 -88 -21
-95 -55 -94 -53 -84 -120 11 -67 4 -196 -16 -269 -29 -107 -99 -229 -190 -328
-32 -35 -34 -40 -19 -48 38 -20 63 -51 63 -78 0 -33 -2 -32 184 -144 155 -93
156 -94 170 -72 26 40 58 131 78 222 22 102 38 465 21 465 -12 0 -167 -97
-235 -146 -26 -20 -48 -34 -48 -31 0 3 11 35 25 71 14 37 30 101 36 141 l11
75 112 64 c111 63 290 156 302 156 3 0 4 -159 1 -352 -6 -430 -21 -528 -109
-721 -17 -37 -29 -69 -27 -71 2 -2 40 -25 83 -51 69 -40 83 -45 103 -36 13 6
34 11 47 11 19 0 29 12 51 58 115 243 163 478 152 752 -7 195 -37 342 -104
525 -48 129 -68 162 -105 168 -18 4 -42 9 -53 11 -13 4 -53 -15 -115 -54z
M3297 3437 c-104 -111 -197 -216 -208 -232 -19 -32 -54 -153 -46 -161 3 -3
109 58 237 135 128 78 234 141 237 141 2 0 3 -19 1 -42 l-3 -42 -237 -141
-237 -140 0 -217 -1 -217 -51 -78 c-61 -94 -120 -216 -150 -309 -12 -38 -25
-73 -29 -77 -4 -5 -23 25 -42 65 -48 102 -135 238 -212 334 -88 110 -91 112
-110 77 -25 -49 -99 -69 -142 -39 -19 14 -33 8 -179 -79 -86 -51 -162 -98
-167 -103 -13 -13 110 -142 267 -281 223 -196 330 -294 471 -431 l141 -137 6
201 c5 216 18 300 67 448 75 225 205 416 475 698 142 148 176 202 201 318 18
90 17 150 -5 257 -21 100 -72 247 -87 251 -5 1 -94 -88 -197 -199z M1790 2988
c0 -220 29 -408 81 -535 26 -62 35 -74 51 -70 11 3 89 47 173 97 141 84 153
94 159 125 4 22 19 45 42 63 l36 30 -79 69 c-122 107 -265 210 -415 296 l-48
28 0 -103z M3361 2499 c-125 -149 -219 -307 -266 -449 -40 -122 -55 -236 -55
-422 l0 -170 146 141 c81 78 258 241 395 362 208 184 350 326 349 349 -1 3
-74 48 -164 101 -145 85 -165 94 -182 82 -25 -18 -85 -16 -113 3 -13 9 -29 30
-36 46 l-12 30 -62 -73z M1077 4633 c-4 -43 -25 -159 -48 -258 -22 -99 -43
-212 -46 -252 -7 -87 9 -179 44 -248 26 -53 89 -135 103 -135 4 0 34 48 65
107 65 123 149 248 232 347 32 38 62 75 68 82 8 11 -40 64 -201 225 l-211 211
-6 -79z M4586 4501 l-209 -209 32 -39 c128 -154 217 -286 290 -431 23 -45 45
-82 50 -82 19 0 85 86 114 149 28 58 32 78 35 171 4 107 0 134 -59 385 -11 50
-26 129 -32 178 l-12 87 -209 -209z M977 3629 c-49 -12 -132 -54 -180 -93 -50
-40 -124 -140 -220 -297 -43 -70 -99 -156 -127 -190 -27 -35 -46 -67 -42 -70
4 -4 132 -5 284 -2 l277 6 6 76 c16 186 54 380 104 524 l20 57 -42 -1 c-23 -1
-59 -5 -80 -10z M4790 3635 c0 -3 16 -61 36 -128 40 -138 70 -300 80 -434 4
-53 11 -93 18 -95 6 -2 136 -2 288 0 l277 4 -48 57 c-26 32 -70 94 -96 137
-202 331 -276 409 -430 448 -58 16 -125 21 -125 11z M400 2895 c0 -3 21 -32
48 -64 26 -33 71 -99 101 -148 164 -269 231 -348 341 -400 51 -24 193 -53 204
-42 3 3 -3 29 -14 58 -48 125 -86 320 -106 534 l-6 67 -284 0 c-156 0 -284 -2
-284 -5z M4906 2803 c-10 -140 -40 -300 -81 -433 -19 -63 -35 -118 -35 -122 0
-13 62 -9 125 7 143 38 230 120 377 361 53 88 119 187 147 222 l51 62 -289 0
-288 0 -7 -97z M1090 2094 c-55 -59 -87 -131 -101 -227 -13 -91 -4 -175 43
-367 17 -69 38 -171 47 -227 l16 -102 208 207 c136 134 206 211 200 218 -4 6
-34 42 -66 80 -80 94 -196 270 -248 377 -24 48 -46 87 -50 87 -4 0 -25 -21
-49 -46z M4686 2035 c-80 -152 -179 -294 -275 -398 l-45 -48 209 -209 c141
-141 212 -205 217 -197 4 7 8 30 8 52 0 22 14 101 31 175 76 329 82 386 53
511 -17 73 -79 179 -120 206 -21 13 -24 10 -78 -92z M1350 1323 l-205 -207 68
-8 c71 -8 210 -41 357 -85 125 -37 275 -43 368 -14 63 19 177 89 196 120 4 6
-24 26 -65 47 -157 79 -374 229 -458 318 -19 20 -40 36 -46 36 -6 0 -103 -93
-215 -207z M4221 1449 c-107 -92 -265 -201 -366 -252 -115 -58 -114 -57 -65
-101 24 -21 72 -52 109 -70 63 -30 71 -31 191 -31 116 0 136 3 275 42 174 49
282 73 331 73 19 0 34 3 34 8 0 8 -402 412 -410 412 -3 -1 -47 -37 -99 -81z
M2240 1050 c0 -111 69 -246 171 -334 24 -21 122 -90 218 -153 95 -63 194 -134
221 -159 l47 -44 4 52 c2 29 4 165 4 303 l0 250 -125 12 c-159 16 -296 43
-432 86 l-108 35 0 -48z M3551 1069 c-124 -42 -289 -77 -438 -90 l-133 -13 0
-305 0 -305 33 31 c42 40 170 132 298 213 218 139 317 268 327 425 2 41 3 75
1 74 -2 -1 -42 -14 -88 -30z"/>
</g>
</svg>
