<svg xmlns="http://www.w3.org/2000/svg" viewBox="0 0 64 64" width="64" height="64">
  <defs>
    <radialGradient id="vacuumVortexGrad" cx="50%" cy="50%" r="50%">
      <stop offset="0%" stop-color="#39ff88" stop-opacity="0.9"/>
      <stop offset="70%" stop-color="#39ff88" stop-opacity="0.15"/>
      <stop offset="100%" stop-color="#39ff88" stop-opacity="0"/>
    </radialGradient>
  </defs>

  <!-- Vortex glow -->
  <circle cx="32" cy="32" r="26" fill="url(#vacuumVortexGrad)"/>

  <!-- Swirl arms -->
  <g fill="none" stroke="#39ff88" stroke-width="3" stroke-linecap="round">
    <path d="M32,32 C42,28 50,32 50,20 C50,10 40,6 30,10"/>
    <path d="M32,32 C22,36 14,32 14,44 C14,54 24,58 34,54" opacity="0.8"/>
    <path d="M32,32 C36,22 32,14 44,14 C52,14 56,22 54,30" opacity="0.55"/>
  </g>

  <!-- Captured particles pulled inward -->
  <circle cx="46" cy="18" r="2.2" fill="#ff3b94"/>
  <circle cx="16" cy="46" r="1.8" fill="#ff3b94" opacity="0.8"/>
  <circle cx="50" cy="30" r="1.6" fill="#ffc83c" opacity="0.9"/>

  <!-- Core -->
  <circle cx="32" cy="32" r="6" fill="#080808" stroke="#39ff88" stroke-width="2.5"/>
  <circle cx="32" cy="32" r="2.2" fill="#39ff88"/>

  <!-- Outer casing -->
  <circle cx="32" cy="32" r="30" fill="none" stroke="#39ff88" stroke-width="2"/>
</svg>
